<svg viewBox="0 0 35.96 33.4979" x="0" y="0" fill="none" xmlns="http://www.w3.org/2000/svg"><defs><clipPath id="clip10_1_23209" xmlns="http://www.w3.org/2000/svg">
<rect width="35.96" height="33.5" fill="white" transform="translate(0.00030000000000995897, 0)"/>
</clipPath></defs><g id="Image [team-logo]_3" clip-path="url(#clip10_1_23209)" xmlns="http://www.w3.org/2000/svg">
<path id="Vector_245" d="M0.0663,18.53c0.085,-0.13 5.601,1.68 5.731,1.76c0.129,0.09 0.593,0.91 0.506,1.06c-0.087,0.15 -4.169,-0.31 -4.955,-0.73c-0.807,-0.43 -1.586,-1.65 -1.282,-2.09z" fill="#C27614"/>
<path id="Vector_246" d="M0.0663,18.53c-0.048,-0.14 5.601,1.68 5.73,1.76c0.129,0.09 0.265,0.28 0.178,0.43c-0.088,0.15 -3.936,-0.55 -4.705,-1c-0.689,-0.4 -1.051,-0.74 -1.203,-1.19z" fill="#F2920C"/>
<path id="Vector_247" d="M0.8733,20.67c0.069,-0.13 5.762,0.99 5.901,1.06c0.14,0.07 0.698,0.83 0.63,0.99c-0.068,0.16 -4.175,0.2 -5.01,-0.12c-0.851,-0.33 -1.77,-1.45 -1.521,-1.93z" fill="#C27614"/>
<path id="Vector_248" d="M0.8723,20.67c-0.065,-0.13 5.762,0.99 5.902,1.06c0.139,0.07 0.297,0.25 0.228,0.41c-0.068,0.16 -3.973,-0.07 -4.795,-0.43c-0.731,-0.32 -1.132,-0.61 -1.335,-1.04z" fill="#F2920C"/>
<path id="Vector_249" d="M1.7933,22.56c0.056,-0.14 5.829,0.45 5.974,0.51c0.145,0.05 0.772,0.75 0.714,0.92c-0.058,0.16 -4.137,0.59 -4.999,0.34c-0.873,-0.25 -1.891,-1.27 -1.689,-1.77z" fill="#C27614"/>
<path id="Vector_250" d="M1.7923,22.56c-0.079,-0.13 5.829,0.45 5.974,0.51c0.145,0.05 0.318,0.21 0.265,0.38c-0.052,0.16 -3.963,0.3 -4.814,0.02c-0.758,-0.25 -1.181,-0.51 -1.425,-0.91z" fill="#F2920C"/>
<path id="Vector_251" d="M8.9263,21.96c-0.535,-0.02 -1.309,-0.08 -2.063,-0.17h-0.02c-0.571,-0.06 -1.138,-0.15 -1.698,-0.27l-0.029,-0.01c-0.163,-0.03 -0.323,-0.09 -0.476,-0.15c-0.055,-0.03 -0.108,-0.06 -0.163,-0.09l-0.017,-0.01l-0.014,-0.01c-0.338,-0.23 -0.629,-0.52 -0.859,-0.86c-0.238,-0.34 -0.376,-0.7 -0.336,-0.94c0,0 0,0 0,-0.01c0.007,-0.05 0.025,-0.09 0.051,-0.13c0,-0.01 0.023,-0.01 0.056,-0.01h0.016c0.494,0.05 3.367,0.87 4.84,1.32c0.008,0.23 0.075,0.46 0.195,0.67c0.122,0.22 0.274,0.42 0.452,0.61h0.006c0.019,0.02 0.039,0.04 0.059,0.06z" fill="#C27614"/>
<path id="Vector_252" d="M8.4103,21.29c-0.613,-0.08 -1.459,-0.21 -2.215,-0.36c-0.41,-0.09 -0.794,-0.18 -1.101,-0.27c-0.191,-0.05 -0.377,-0.12 -0.555,-0.2c-0.593,-0.33 -0.952,-0.62 -1.147,-0.97c-0.002,0 -0.004,-0.01 -0.005,-0.01c-0.031,-0.06 -0.057,-0.12 -0.079,-0.18c0,-0.01 0.015,-0.01 0.055,0h0.017c0.492,0.06 3.366,0.88 4.84,1.32c0.006,0.23 0.071,0.46 0.19,0.67z" fill="#F2920C"/>
<path id="Vector_253" d="M11.4363,23.09c-0.038,0.11 -1.825,0.29 -3.291,0.33h-0.107c-0.401,0.01 -0.803,0.01 -1.203,-0.02l-0.079,-0.01c-0.111,-0.01 -0.221,-0.03 -0.328,-0.06c-0.319,-0.11 -0.615,-0.28 -0.873,-0.49h-0.001c-0.007,-0.01 -0.014,-0.01 -0.02,-0.02l-0.008,-0.01c-0.246,-0.19 -0.457,-0.43 -0.625,-0.69c-0.134,-0.23 -0.188,-0.44 -0.121,-0.6c0,-0.01 0.023,-0.01 0.058,-0.01c0.094,-0.01 0.188,-0.01 0.282,0c0.251,0.01 0.626,0.04 1.063,0.09h0.018h0.005c0.793,0.08 1.799,0.19 2.659,0.3h0.006c0.018,0.02 0.038,0.04 0.058,0.06c0.192,0.19 0.401,0.36 0.625,0.51c0.103,0.07 0.211,0.13 0.323,0.19c0.426,0.2 0.89,0.31 1.36,0.31h0.005h0.067h0.004h0.107c0.019,0.04 0.024,0.08 0.016,0.12z" fill="#C27614"/>
<path id="Vector_254" d="M9.8743,22.66c-0.732,0.02 -1.694,0.02 -2.474,-0.03c-0.54,-0.03 -0.992,-0.09 -1.221,-0.17c-0.245,-0.08 -0.484,-0.18 -0.714,-0.3c-0.327,-0.18 -0.546,-0.38 -0.692,-0.64c-0.005,-0.01 0.015,-0.01 0.058,-0.02c0.061,0 0.168,0 0.31,0.02c0.267,0.01 0.659,0.05 1.111,0.09h0.015c0.787,0.08 1.757,0.19 2.592,0.29c0.018,0.02 0.038,0.04 0.058,0.06c0.192,0.19 0.401,0.36 0.625,0.51c0.106,0.07 0.217,0.14 0.332,0.19z" fill="#F2920C"/>
<path id="Vector_255" d="M2.9513,24.37c0.037,-0.15 5.835,-0.34 5.987,-0.3c0.151,0.03 0.866,0.64 0.836,0.81c-0.03,0.17 -4.02,1.15 -4.907,1.02c-0.9,-0.13 -2.05,-1.01 -1.916,-1.53z" fill="#C27614"/>
<path id="Vector_256" d="M2.9503,24.37c-0.094,-0.12 5.836,-0.34 5.987,-0.3c0.152,0.03 0.345,0.17 0.318,0.34c-0.027,0.17 -3.888,0.83 -4.768,0.67c-0.785,-0.15 -1.242,-0.34 -1.537,-0.71z" fill="#F2920C"/>
<path id="Vector_257" d="M4.4343,26.16c0.017,-0.14 5.735,-1.13 5.89,-1.11c0.156,0.01 0.943,0.52 0.943,0.69c0,0.18 -3.828,1.68 -4.723,1.68c-0.911,-0.01 -2.171,-0.72 -2.11,-1.26z" fill="#C27614"/>
<path id="Vector_258" d="M4.4333,26.16c-0.109,-0.1 5.735,-1.13 5.891,-1.11c0.155,0.01 0.364,0.12 0.358,0.29c-0.007,0.18 -3.738,1.35 -4.633,1.32c-0.793,-0.04 -1.272,-0.17 -1.616,-0.5z" fill="#F2920C"/>
<path id="Vector_259" d="M6.4263,27.65c0,-0.15 5.528,-1.91 5.684,-1.91c0.155,0 1.008,0.39 1.025,0.57c0.017,0.17 -3.563,2.18 -4.451,2.3c-0.902,0.12 -2.244,-0.42 -2.258,-0.96z" fill="#C27614"/>
<path id="Vector_260" d="M6.4263,27.65c-0.122,-0.09 5.528,-1.91 5.684,-1.91c0.155,0 0.378,0.08 0.397,0.25c0.019,0.17 -3.519,1.85 -4.411,1.93c-0.79,0.07 -1.283,0.01 -1.67,-0.27z" fill="#F2920C"/>
<path id="Vector_261" d="M13.9003,27.47c-0.484,0.38 -1.055,0.81 -1.575,1.17c-0.315,0.23 -0.642,0.43 -0.979,0.62l-0.036,0.02c-0.095,0.05 -0.196,0.1 -0.3,0.13c-0.872,0.26 -2.283,-0.06 -2.38,-0.59c0,0 0.005,-0.01 0.018,-0.02c0.004,-0.01 0.008,-0.01 0.013,-0.02l0.04,-0.02l0.019,-0.02c0.093,-0.06 0.256,-0.16 0.468,-0.28c0.43,-0.24 1.062,-0.57 1.724,-0.92c0.635,-0.32 1.29,-0.66 1.832,-0.93c0.344,-0.17 0.64,-0.31 0.852,-0.41l0.01,0.05c-0.001,0 -0.001,0 0,0.01c0.019,0.1 0.039,0.21 0.059,0.31c0.015,0.08 0.03,0.15 0.047,0.22c0.026,0.12 0.056,0.24 0.086,0.35c0.016,0.06 0.032,0.11 0.047,0.16v0.01c0.02,0.05 0.04,0.1 0.055,0.16z" fill="#C27614"/>
<path id="Vector_262" d="M14.4293,26.13h-0.005c0.001,0 0.001,0 0,0z" fill="#C27614"/>
<path id="Vector_263" d="M13.7143,26.79c-0.531,0.39 -1.304,0.91 -1.999,1.33c-0.205,0.12 -0.404,0.23 -0.587,0.33c-0.257,0.16 -0.529,0.28 -0.813,0.37c-0.77,0.2 -1.27,0.21 -1.689,0c-0.007,0 0,-0.01 0.017,-0.02c0.004,-0.01 0.009,-0.01 0.014,-0.02l0.039,-0.02l0.019,-0.02c0.102,-0.06 0.28,-0.17 0.512,-0.29c0.432,-0.24 1.048,-0.57 1.693,-0.9c0.612,-0.32 1.249,-0.64 1.78,-0.91c0.36,-0.18 0.67,-0.34 0.89,-0.44l0.01,0.05c-0.001,0 -0.001,0.01 0,0.01c0.019,0.11 0.039,0.21 0.059,0.32c0.023,0.06 0.038,0.14 0.055,0.21z" fill="#F2920C"/>
<path id="Vector_264" d="M14.7063,28.59c-0.38,0.41 -0.785,0.79 -1.213,1.15c-0.099,0.09 -0.205,0.16 -0.317,0.22c-0.812,0.41 -2.258,0.35 -2.447,-0.15c0,-0.01 0.006,-0.02 0.025,-0.04l0.011,-0.01c0.171,-0.17 0.352,-0.33 0.541,-0.48c0.223,-0.18 0.496,-0.4 0.793,-0.64c0.546,-0.43 1.177,-0.91 1.746,-1.34v0.01c0.015,0.05 0.033,0.11 0.05,0.16c0.043,0.12 0.094,0.24 0.152,0.36c0.001,0.01 0.003,0.01 0.005,0.01c0.007,0.02 0.016,0.03 0.023,0.05c0.022,0.04 0.043,0.08 0.066,0.11c0.012,0.02 0.026,0.04 0.041,0.06c0.128,0.18 0.279,0.34 0.451,0.47c0.026,0.02 0.049,0.04 0.073,0.06z" fill="#C27614"/>
<path id="Vector_265" d="M14.1863,28.06c-0.606,0.57 -1.233,1.11 -1.623,1.35c-0.038,0.03 -0.074,0.05 -0.106,0.06c-0.033,0.02 -0.045,0.03 -0.065,0.04c-0.722,0.33 -1.208,0.43 -1.662,0.3c-0.009,0 0,-0.02 0.025,-0.04l0.012,-0.02c0.083,-0.08 0.291,-0.26 0.576,-0.49c0.219,-0.18 0.486,-0.39 0.776,-0.62c0.542,-0.42 1.168,-0.91 1.73,-1.34c0.016,0.06 0.033,0.11 0.051,0.16c0.043,0.13 0.093,0.25 0.151,0.37c0.002,0 0.003,0.01 0.005,0.01c0.007,0.02 0.016,0.03 0.024,0.05c0.021,0.04 0.043,0.08 0.065,0.11c0.013,0.02 0.026,0.04 0.041,0.06z" fill="#F2920C"/>
<path id="Vector_266" d="M13.2403,23.89h-0.007l-0.018,0.01c-1.144,0.36 -2.31,0.64 -3.492,0.84c-0.175,0.03 -0.338,0.05 -0.484,0.07h-0.004h-0.054c-0.155,0.02 -0.311,0.02 -0.467,0.01c-0.172,-0.02 -0.34,-0.07 -0.503,-0.13c-0.314,-0.12 -0.608,-0.28 -0.873,-0.48c-0.043,-0.04 -0.085,-0.07 -0.125,-0.11h-0.006c-0.168,-0.14 -0.303,-0.31 -0.397,-0.51c-0.029,-0.06 -0.043,-0.13 -0.042,-0.2c0,-0.03 0.003,-0.05 0.009,-0.07c0,-0.01 0.014,-0.01 0.038,-0.02h0.012l0.047,-0.01c0.171,-0.04 0.556,-0.07 1.048,-0.11h0.023c0.942,-0.08 2.275,-0.15 3.299,-0.2h0.005h0.067h0.004h0.108c0.664,0 1.224,-0.1 1.49,0.06c0.075,0.06 0.13,0.14 0.159,0.23c0.074,0.2 0.13,0.41 0.167,0.62z" fill="#C27614"/>
<path id="Vector_267" d="M13.0653,23.27c-0.108,0.17 -3.57,0.83 -4.629,0.75c-0.042,0 -0.083,-0.01 -0.124,-0.01c-0.568,-0.1 -0.967,-0.22 -1.258,-0.43c-0.079,-0.05 -0.152,-0.11 -0.218,-0.18c-0.024,-0.03 -0.047,-0.05 -0.068,-0.08c-0.005,0 0.008,-0.01 0.038,-0.02h0.012l0.047,-0.01c0.173,-0.03 0.556,-0.06 1.056,-0.1h0.023c0.964,-0.08 2.332,-0.16 3.363,-0.21h0.004h0.108c0.664,0.01 1.224,-0.09 1.49,0.06c0.074,0.06 0.128,0.14 0.156,0.23z" fill="#F2920C"/>
<path id="Vector_268" d="M13.4383,25.19c-0.419,0.19 -0.88,0.38 -1.321,0.55c-0.746,0.29 -1.437,0.52 -1.779,0.55h-0.026h-0.009c-0.048,0 -0.098,0 -0.149,0h-0.031h-0.018c-0.383,-0.03 -0.757,-0.14 -1.104,-0.3c-0.353,-0.17 -0.646,-0.38 -0.78,-0.6v0l-0.008,-0.02c-0.046,-0.07 -0.068,-0.16 -0.065,-0.24c0,-0.01 0.013,-0.02 0.037,-0.03l0.044,-0.02c0.15,-0.06 0.496,-0.15 0.953,-0.27c0.158,-0.03 0.324,-0.08 0.503,-0.12c1.145,-0.28 2.658,-0.61 3.553,-0.79c0.035,0.18 0.069,0.39 0.104,0.61c0.027,0.18 0.054,0.36 0.079,0.55c0,0 0,0 0,0.01c0.005,0.04 0.011,0.08 0.017,0.12z" fill="#C27614"/>
<path id="Vector_269" d="M13.3373,24.51c-0.723,0.28 -1.7,0.62 -2.476,0.83c-0.087,0.02 -0.172,0.05 -0.253,0.07c-0.27,0.07 -0.548,0.12 -0.828,0.14c-0.567,0 -0.977,-0.06 -1.295,-0.2c-0.003,-0.01 -0.007,-0.01 -0.01,-0.01c-0.016,-0.01 -0.032,-0.01 -0.048,-0.02c-0.102,-0.05 -0.197,-0.12 -0.283,-0.19c-0.006,-0.01 0.006,-0.02 0.037,-0.03l0.045,-0.02c0.159,-0.05 0.525,-0.15 1.004,-0.27h0.004l0.452,-0.11c1.136,-0.27 2.633,-0.61 3.527,-0.79h0.02c0.036,0.17 0.07,0.38 0.104,0.6z" fill="#F2920C"/>
<path id="Vector_270" d="M13.6673,26.57c-0.853,0.48 -1.704,0.9 -2.079,0.96c-0.079,0.02 -0.159,0.03 -0.238,0.03h-0.018c-0.079,0 -0.158,0 -0.238,0c-0.056,0 -0.112,-0.01 -0.17,-0.01h-0.015c-0.328,-0.04 -0.649,-0.13 -0.952,-0.26c-0.375,-0.17 -0.646,-0.4 -0.659,-0.63c0,-0.01 0.016,-0.02 0.047,-0.04l0.03,-0.02h0.01l0.025,-0.01l0.014,-0.01h0.017c0.138,-0.07 0.372,-0.17 0.667,-0.29c0.182,-0.07 0.388,-0.15 0.609,-0.23h0.004c0.823,-0.32 1.862,-0.69 2.698,-0.99v0c0.006,0.05 0.013,0.09 0.018,0.13c0.031,0.21 0.063,0.42 0.097,0.64c0.019,0.12 0.04,0.24 0.062,0.36l0.009,0.06c0,0 0,0 0,0.01c0.021,0.1 0.041,0.2 0.062,0.3z" fill="#C27614"/>
<path id="Vector_271" d="M14.4293,26.13h-0.005c0.001,0 0.001,0 0,0z" fill="#C27614"/>
<path id="Vector_272" d="M13.5343,25.83c-0.192,0.09 -0.39,0.19 -0.587,0.28c-0.812,0.38 -1.609,0.72 -1.972,0.76l-0.097,0.01c-0.732,0.08 -1.201,0.03 -1.578,-0.22c-0.008,-0.01 0.008,-0.02 0.047,-0.04l0.03,-0.02l0.019,-0.01l0.036,-0.02h0.008h0.015c0.144,-0.07 0.376,-0.16 0.666,-0.28c0.129,-0.05 0.268,-0.1 0.417,-0.16h0.004c0.849,-0.32 1.978,-0.73 2.875,-1.06c0.006,0.05 0.013,0.09 0.018,0.13c0.034,0.2 0.065,0.41 0.099,0.63z" fill="#F2920C"/>
<path id="Vector_273" d="M14.0803,27.89c-0.135,0.1 -0.265,0.19 -0.386,0.27c-0.019,0.01 -0.038,0.03 -0.056,0.04c-0.183,0.13 -0.381,0.24 -0.588,0.32c-0.235,0.08 -0.479,0.12 -0.725,0.12c-0.069,0 -0.138,0 -0.207,0h-0.015c-0.333,0 -0.664,-0.07 -0.976,-0.18c-0.257,-0.11 -0.44,-0.25 -0.476,-0.43c0,0 0.009,-0.02 0.03,-0.04l0.027,-0.02l0.043,-0.03c0.115,-0.09 0.318,-0.22 0.586,-0.38c0.582,-0.35 1.451,-0.85 2.272,-1.31c-0.001,0 -0.001,0.01 0,0.01c0.019,0.1 0.038,0.21 0.059,0.32c0.015,0.07 0.03,0.14 0.047,0.21c0.026,0.12 0.055,0.24 0.086,0.35c0.015,0.06 0.031,0.11 0.047,0.17v0c0.016,0.06 0.033,0.11 0.051,0.16c0.043,0.13 0.093,0.25 0.151,0.37c0.002,0 0.003,0 0.005,0.01c0.008,0.01 0.017,0.03 0.025,0.04z" fill="#C27614"/>
<path id="Vector_274" d="M14.4293,26.13h-0.005c0.001,0 0.001,0 0,0z" fill="#C27614"/>
<path id="Vector_275" d="M13.7993,27.14c-0.609,0.4 -1.17,0.74 -1.463,0.82c-0.204,0.07 -0.412,0.12 -0.621,0.16c-0.434,0.08 -0.767,0.05 -1.068,-0.09c-0.008,0 0,-0.02 0.031,-0.04l0.026,-0.02l0.043,-0.03c0.119,-0.08 0.33,-0.22 0.603,-0.38c0.583,-0.35 1.444,-0.84 2.256,-1.3c0.019,0.1 0.039,0.21 0.06,0.32c0.015,0.07 0.03,0.14 0.046,0.21c0.027,0.12 0.057,0.23 0.087,0.35z" fill="#F2920C"/>
<path id="Vector_276" d="M14.4293,26.13h-0.005c0.001,0 0.001,0 0,0z" fill="#F2920C"/>
<path id="Vector_277" d="M15.3313,28.99c-0.144,0.15 -0.304,0.29 -0.476,0.4c-0.266,0.15 -0.554,0.25 -0.852,0.3h-0.012c-0.163,0.03 -0.329,0.04 -0.495,0.05c-0.457,0.01 -0.864,-0.07 -1.035,-0.27c-0.023,-0.03 -0.043,-0.06 -0.057,-0.09c0,0 0.005,-0.02 0.016,-0.04l0.008,-0.01c0.12,-0.15 0.603,-0.6 1.21,-1.13c0.133,-0.12 0.272,-0.24 0.414,-0.37c0.001,0.01 0.002,0.01 0.005,0.01c0.007,0.02 0.015,0.03 0.023,0.05c0.022,0.04 0.043,0.08 0.065,0.11c0.013,0.02 0.027,0.04 0.042,0.06c0.127,0.18 0.279,0.34 0.45,0.47c0.023,0.02 0.046,0.04 0.069,0.06c0.062,0.05 0.127,0.09 0.194,0.14h0.007c0.134,0.09 0.277,0.18 0.424,0.26z" fill="#C27614"/>
<path id="Vector_278" d="M14.6373,28.53c-0.183,0.18 -0.383,0.33 -0.596,0.46c-0.619,0.33 -1.066,0.47 -1.478,0.42c-0.055,0 -0.11,-0.01 -0.164,-0.02c-0.008,0 0,-0.02 0.017,-0.04l0.008,-0.01c0.127,-0.15 0.634,-0.62 1.269,-1.17l0.362,-0.32c0.007,0.01 0.016,0.03 0.024,0.05c0.021,0.03 0.043,0.07 0.065,0.11c0.013,0.02 0.026,0.04 0.041,0.06c0.128,0.17 0.28,0.33 0.452,0.46z" fill="#F2920C"/>
<path id="Vector_279" d="M16.5133,29.52c-0.148,0.19 -0.316,0.36 -0.501,0.5c-0.748,0.53 -2.188,0.66 -2.444,0.19c0,0 0,-0.01 0.011,-0.03l0.011,-0.02v0c0.124,-0.16 0.256,-0.32 0.397,-0.47c0.238,-0.26 0.555,-0.59 0.912,-0.96h0.007c0.135,0.1 0.278,0.18 0.424,0.26c0.128,0.07 0.258,0.14 0.388,0.2c0.276,0.13 0.548,0.24 0.795,0.33z" fill="#C27614"/>
<path id="Vector_280" d="M15.7193,29.19c-0.165,0.18 -0.349,0.35 -0.548,0.49c-0.669,0.43 -1.136,0.6 -1.604,0.53c-0.008,0 -0.004,-0.01 0.011,-0.03l0.011,-0.02v0c0.059,-0.08 0.204,-0.25 0.407,-0.47c0.238,-0.26 0.556,-0.59 0.908,-0.95c0.135,0.09 0.278,0.18 0.425,0.26c0.13,0.06 0.26,0.13 0.39,0.19z" fill="#F2920C"/>
<path id="Vector_281" d="M18.1583,29.23c0,0.34 -0.597,0.59 -0.709,0.59l-0.028,-0.01h-0.004c-0.108,-0.03 -0.46,-0.12 -0.901,-0.29c-0.246,-0.09 -0.519,-0.2 -0.794,-0.33c-0.13,-0.06 -0.26,-0.13 -0.388,-0.2c-0.146,-0.08 -0.289,-0.16 -0.424,-0.26h-0.007c-0.067,-0.05 -0.132,-0.09 -0.194,-0.14c-0.024,-0.02 -0.047,-0.04 -0.069,-0.06c-0.171,-0.13 -0.323,-0.29 -0.451,-0.47c-0.015,-0.02 -0.028,-0.04 -0.041,-0.06c-0.022,-0.03 -0.044,-0.07 -0.065,-0.11c-0.008,-0.02 -0.017,-0.03 -0.024,-0.05c-0.002,0 -0.003,0 -0.005,-0.01c-0.058,-0.12 -0.108,-0.24 -0.151,-0.36c-0.018,-0.06 -0.035,-0.11 -0.051,-0.16c0,0 0,0 0,-0.01c-0.016,-0.05 -0.032,-0.11 -0.047,-0.16c-0.031,-0.12 -0.06,-0.23 -0.086,-0.35c-0.017,-0.07 -0.032,-0.15 -0.047,-0.22c-0.021,-0.1 -0.04,-0.21 -0.059,-0.31c-0.001,-0.01 -0.001,-0.01 0,-0.01l-0.01,-0.06c-0.022,-0.12 -0.043,-0.24 -0.062,-0.36c-0.034,-0.22 -0.066,-0.43 -0.097,-0.64c-0.005,-0.04 -0.012,-0.08 -0.018,-0.13v0c-0.027,-0.19 -0.054,-0.37 -0.079,-0.55c-0.034,-0.22 -0.069,-0.43 -0.104,-0.61c-0.037,-0.22 -0.093,-0.43 -0.168,-0.63c-0.028,-0.09 -0.083,-0.17 -0.158,-0.23c-0.266,-0.16 -0.826,-0.05 -1.49,-0.06h-0.108h-0.004h-0.067h-0.005c-0.47,-0.01 -0.934,-0.12 -1.36,-0.32c-0.112,-0.05 -0.22,-0.11 -0.323,-0.18c-0.224,-0.15 -0.433,-0.32 -0.625,-0.51c-0.02,-0.02 -0.04,-0.04 -0.058,-0.06l-0.006,-0.01c-0.178,-0.18 -0.33,-0.39 -0.452,-0.61c-0.121,-0.2 -0.187,-0.43 -0.195,-0.67c-0.001,-0.04 0.01,-0.08 0.032,-0.12c0.109,-0.15 4.949,1.46 5.4,1.96c0.145,0.16 0.27,0.67 0.387,1.31v0c0.024,0.14 0.049,0.28 0.073,0.43c0.032,0.19 0.064,0.39 0.096,0.59l0.007,0.05c0.031,0.2 0.062,0.4 0.093,0.59c0.022,0.14 0.043,0.27 0.065,0.4v0c0.017,0.11 0.035,0.21 0.052,0.3c0,0.01 0,0.01 0,0.01c0.033,0.18 0.065,0.35 0.099,0.5c0.01,0.05 0.02,0.09 0.03,0.14v0c0.01,0.04 0.02,0.09 0.03,0.13c0.031,0.12 0.07,0.25 0.116,0.37v0.01c0.015,0.03 0.03,0.07 0.046,0.1c0.012,0.02 0.026,0.05 0.042,0.07l0.011,0.02c0.097,0.13 0.296,0.26 0.545,0.38l0.026,0.01c0.079,0.04 0.165,0.08 0.253,0.12h0.009c0.149,0.07 0.306,0.13 0.462,0.19c0.136,0.05 0.272,0.09 0.401,0.14c0.314,0.1 0.594,0.18 0.768,0.24c0.061,0.01 0.121,0.03 0.179,0.06c0.113,-0.01 0.712,0.28 0.712,0.61z" fill="#C27614"/>
<path id="Vector_282" d="M18.4793,30.39c0.297,0 0.538,-0.51 0.538,-1.15c0,-0.63 -0.241,-1.15 -0.538,-1.15c-0.297,0 -0.538,0.52 -0.538,1.15c0,0.64 0.241,1.15 0.538,1.15z" fill="#C27614"/>
<path id="Vector_283" d="M18.4783,25.08c-1.074,0 -1.944,1.87 -1.944,4.16c0,2.3 0.872,4.17 1.944,4.17c1.072,0 1.946,-1.87 1.946,-4.17c0,-2.3 -0.871,-4.16 -1.946,-4.16zM18.4783,32.65c-0.88,0 -1.594,-1.52 -1.594,-3.41c0,-1.89 0.714,-3.41 1.594,-3.41c0.88,0 1.594,1.52 1.594,3.41c0,1.89 -0.713,3.41 -1.594,3.41z" fill="#C27614"/>
<path id="Vector_284" d="M20.0743,29.24c0,1.89 -0.714,3.42 -1.594,3.42c-0.07,0 -0.139,-0.01 -0.206,-0.03c0.784,-0.22 1.389,-1.65 1.389,-3.38c0,-1.74 -0.605,-3.17 -1.389,-3.39c0.067,-0.02 0.136,-0.02 0.206,-0.02c0.88,-0.01 1.594,1.52 1.594,3.4z" fill="#F2920C"/>
<path id="Vector_285" d="M18.1443,33.34c-0.16,0.1 -0.344,0.16 -0.532,0.16c-1.098,0 -1.989,-1.91 -1.989,-4.26c0,-2.35 0.891,-4.26 1.989,-4.26c0.189,0.01 0.373,0.06 0.533,0.16c0,0 0,0 -0.005,0c-0.107,-0.04 -0.22,-0.06 -0.335,-0.06c-1.073,0 -1.944,1.86 -1.944,4.16c0,2.3 0.872,4.16 1.944,4.16c0.116,0 0.231,-0.02 0.339,-0.06z" fill="#C27614"/>
<path id="Vector_286" d="M18.0673,33.31c0.026,0.01 0.052,0.03 0.079,0.03c-0.106,0.04 -0.22,0.07 -0.334,0.07c-1.074,0 -1.945,-1.87 -1.945,-4.17c0,-2.3 0.873,-4.16 1.945,-4.16c0.114,0 0.228,0.02 0.334,0.06c-0.025,0.01 -0.05,0.02 -0.079,0.04c-0.042,-0.01 -0.084,-0.01 -0.126,-0.01c-1.052,0 -1.904,1.82 -1.904,4.07c0,2.25 0.853,4.08 1.904,4.08c0.042,0 0.084,0 0.126,-0.01z" fill="#F2920C"/>
<path id="Vector_287" d="M18.0673,33.31c-0.042,0.01 -0.084,0.01 -0.126,0.01c-1.052,0 -1.904,-1.83 -1.904,-4.08c0,-2.25 0.853,-4.07 1.904,-4.07c0.042,0 0.084,0 0.126,0.01c-0.873,0.4 -1.533,2.07 -1.533,4.06c0,2 0.657,3.67 1.533,4.07z" fill="#F2920C"/>
<path id="Vector_288" d="M18.7543,30.23v2.37c-0.177,0.07 -0.373,0.07 -0.549,0v-2.37c0.03,0.05 0.071,0.09 0.118,0.11c0.048,0.03 0.101,0.05 0.156,0.05c0.042,0 0.084,-0.01 0.122,-0.03c0.038,-0.01 0.073,-0.04 0.101,-0.07c0.019,-0.02 0.036,-0.04 0.052,-0.06z" fill="#C27614"/>
<path id="Vector_289" d="M18.2063,25.89v2.37c-0.028,0.03 -0.053,0.07 -0.073,0.11l-0.192,-0.24v-2.1c0.08,-0.06 0.17,-0.11 0.265,-0.14z" fill="#F2920C"/>
<path id="Vector_290" d="M18.2063,30.23v2.37c-0.096,-0.03 -0.185,-0.08 -0.265,-0.15v-2.09l0.193,-0.24c0.02,0.04 0.044,0.08 0.072,0.11z" fill="#F2920C"/>
<path id="Vector_291" d="M19.9433,27.89l-0.934,1.15c-0.013,-0.21 -0.067,-0.43 -0.159,-0.63l0.928,-1.15c0.068,0.21 0.123,0.42 0.165,0.63z" fill="#C27614"/>
<path id="Vector_292" d="M18.1343,30.12l-0.193,0.24l-0.742,0.92c-0.07,-0.21 -0.127,-0.41 -0.171,-0.62l0.913,-1.13l0.015,-0.02c0.019,0.22 0.08,0.42 0.178,0.61z" fill="#C27614"/>
<path id="Vector_293" d="M19.7773,27.26l-0.929,1.15c-0.025,-0.06 -0.057,-0.11 -0.095,-0.15v-0.13l0.924,-1.14c0.034,0.09 0.068,0.18 0.1,0.27z" fill="#F2920C"/>
<path id="Vector_294" d="M18.7543,25.89v2.37c-0.017,-0.03 -0.035,-0.05 -0.054,-0.07c-0.058,-0.06 -0.137,-0.09 -0.221,-0.1c-0.055,0.01 -0.108,0.02 -0.156,0.05c-0.047,0.03 -0.088,0.07 -0.118,0.11v-2.36c0.176,-0.07 0.372,-0.07 0.549,0z" fill="#C27614"/>
<path id="Vector_295" d="M17.9563,29.51l-0.015,0.02l-0.913,1.12c-0.023,-0.1 -0.043,-0.21 -0.061,-0.32l0.878,-1.08l0.096,-0.12v-0.01c0,0.04 0,0.08 0,0.12c0,0.04 0,0.08 0,0.13c0.005,0.05 0.01,0.09 0.015,0.14z" fill="#F2920C"/>
<path id="Vector_296" d="M18.1333,28.37c-0.099,0.19 -0.159,0.4 -0.177,0.61l-0.014,-0.01l-0.917,-1.12c0.044,-0.21 0.101,-0.42 0.171,-0.63l0.746,0.91z" fill="#C27614"/>
<path id="Vector_297" d="M19.9463,30.58c-0.041,0.21 -0.096,0.42 -0.164,0.63l-0.931,-1.14c0.092,-0.2 0.146,-0.41 0.159,-0.63z" fill="#C27614"/>
<path id="Vector_298" d="M17.9553,28.98c-0.004,0.05 -0.008,0.1 -0.011,0.14v0.01l-0.096,0.12l-0.88,-1.08c0.018,-0.11 0.038,-0.22 0.06,-0.32l0.916,1.11z" fill="#F2920C"/>
<path id="Vector_299" d="M19.7813,31.21c-0.031,0.09 -0.065,0.18 -0.101,0.27l-0.927,-1.13v-0.12c0.039,-0.05 0.072,-0.1 0.098,-0.16z" fill="#F2920C"/>
<path id="Vector_300" d="M35.8933,18.53c-0.085,-0.13 -5.601,1.68 -5.73,1.76c-0.129,0.09 -0.593,0.91 -0.506,1.06c0.087,0.15 4.169,-0.31 4.959,-0.73c0.804,-0.43 1.58,-1.65 1.277,-2.09z" fill="#C27614"/>
<path id="Vector_301" d="M35.8923,18.53c0.049,-0.14 -5.601,1.68 -5.73,1.76c-0.129,0.09 -0.265,0.28 -0.178,0.43c0.088,0.15 3.937,-0.55 4.709,-1c0.685,-0.4 1.047,-0.74 1.199,-1.19z" fill="#F2920C"/>
<path id="Vector_302" d="M35.0883,20.67c-0.069,-0.13 -5.762,0.99 -5.902,1.06c-0.139,0.07 -0.698,0.83 -0.63,0.99c0.068,0.16 4.175,0.2 5.011,-0.12c0.85,-0.33 1.768,-1.45 1.521,-1.93z" fill="#C27614"/>
<path id="Vector_303" d="M35.0893,20.67c0.065,-0.13 -5.763,0.99 -5.902,1.06c-0.14,0.07 -0.297,0.25 -0.229,0.41c0.069,0.16 3.975,-0.07 4.796,-0.43c0.729,-0.32 1.13,-0.61 1.335,-1.04z" fill="#F2920C"/>
<path id="Vector_304" d="M34.1673,22.56c-0.057,-0.14 -5.83,0.45 -5.975,0.51c-0.145,0.05 -0.771,0.75 -0.718,0.92c0.053,0.16 4.138,0.59 4.999,0.34c0.877,-0.25 1.895,-1.27 1.694,-1.77z" fill="#C27614"/>
<path id="Vector_305" d="M34.1673,22.56c0.08,-0.13 -5.829,0.45 -5.974,0.51c-0.146,0.05 -0.318,0.21 -0.265,0.38c0.052,0.16 3.963,0.3 4.814,0.02c0.755,-0.25 1.182,-0.51 1.425,-0.91z" fill="#F2920C"/>
<path id="Vector_306" d="M32.3723,20.39c-0.229,0.33 -0.521,0.63 -0.86,0.85l-0.013,0.01l-0.018,0.01c-0.053,0.04 -0.108,0.07 -0.164,0.1c-0.153,0.07 -0.313,0.12 -0.476,0.15l-0.03,0.01c-0.561,0.12 -1.129,0.21 -1.7,0.27h-0.02c-0.75,0.09 -1.523,0.15 -2.063,0.17c0.02,-0.02 0.04,-0.04 0.058,-0.06h0.006c0.178,-0.18 0.33,-0.39 0.453,-0.61c0.12,-0.21 0.187,-0.43 0.194,-0.67c1.474,-0.44 4.346,-1.27 4.84,-1.32h0.017c0.032,0 0.052,0 0.055,0.01c0.027,0.04 0.045,0.08 0.052,0.13v0.01c0.046,0.24 -0.093,0.59 -0.331,0.94z" fill="#C27614"/>
<path id="Vector_307" d="M32.6573,19.3c-0.022,0.06 -0.049,0.12 -0.08,0.18c-0.001,0.01 -0.003,0.01 -0.005,0.01c-0.194,0.35 -0.555,0.64 -1.147,0.97c-0.178,0.08 -0.364,0.15 -0.556,0.2c-0.306,0.09 -0.69,0.18 -1.1,0.27c-0.756,0.15 -1.602,0.28 -2.215,0.36c0.12,-0.2 0.187,-0.43 0.195,-0.67c1.473,-0.44 4.348,-1.25 4.84,-1.32h0.016c0.036,-0.01 0.055,-0.01 0.052,0z" fill="#F2920C"/>
<path id="Vector_308" d="M31.0643,22.12c-0.168,0.26 -0.378,0.5 -0.624,0.69l-0.009,0.01c-0.006,0.01 -0.012,0.01 -0.019,0.02h-0.014c-0.256,0.21 -0.549,0.38 -0.866,0.49c-0.108,0.03 -0.217,0.05 -0.328,0.06l-0.079,0.01c-0.401,0.03 -0.803,0.04 -1.204,0.02h-0.107c-1.462,-0.04 -3.253,-0.22 -3.29,-0.33c-0.006,-0.04 0,-0.08 0.018,-0.11h0.108h0.004h0.065h0.006c0.47,-0.01 0.933,-0.12 1.359,-0.32c0.112,-0.05 0.22,-0.11 0.323,-0.18c0.224,-0.15 0.434,-0.32 0.626,-0.51c0.02,-0.02 0.04,-0.04 0.058,-0.06l0.006,-0.01c0.859,-0.11 1.863,-0.22 2.657,-0.3h0.005h0.018c0.438,-0.05 0.812,-0.08 1.064,-0.09c0.094,-0.01 0.188,-0.01 0.282,0c0.034,0 0.054,0 0.057,0.01c0.073,0.16 0.018,0.37 -0.116,0.6z" fill="#C27614"/>
<path id="Vector_309" d="M31.1823,21.52c-0.147,0.26 -0.366,0.46 -0.693,0.64c-0.229,0.12 -0.468,0.22 -0.714,0.3c-0.229,0.08 -0.681,0.14 -1.22,0.17c-0.78,0.05 -1.746,0.06 -2.476,0.03c0.112,-0.05 0.22,-0.11 0.323,-0.18c0.224,-0.15 0.434,-0.32 0.626,-0.51c0.02,-0.02 0.04,-0.04 0.058,-0.06c0.834,-0.1 1.804,-0.21 2.591,-0.29h0.015c0.455,-0.05 0.847,-0.08 1.111,-0.1c0.143,-0.01 0.25,-0.01 0.311,-0.01c0.055,0 0.076,0 0.068,0.01z" fill="#F2920C"/>
<path id="Vector_310" d="M33.0073,24.37c-0.037,-0.15 -5.836,-0.34 -5.988,-0.3c-0.151,0.03 -0.866,0.64 -0.836,0.81c0.03,0.17 4.021,1.15 4.908,1.02c0.904,-0.13 2.051,-1.01 1.916,-1.53z" fill="#C27614"/>
<path id="Vector_311" d="M33.0073,24.37c0.094,-0.12 -5.837,-0.34 -5.988,-0.3c-0.152,0.03 -0.344,0.17 -0.318,0.34c0.027,0.17 3.888,0.83 4.768,0.67c0.787,-0.15 1.244,-0.34 1.538,-0.71z" fill="#F2920C"/>
<path id="Vector_312" d="M31.5253,26.16c-0.016,-0.14 -5.735,-1.13 -5.89,-1.11c-0.156,0.01 -0.946,0.52 -0.94,0.69c0.007,0.18 3.828,1.68 4.724,1.68c0.911,-0.01 2.167,-0.72 2.106,-1.26z" fill="#C27614"/>
<path id="Vector_313" d="M31.5253,26.16c0.109,-0.1 -5.735,-1.13 -5.89,-1.11c-0.156,0.01 -0.364,0.12 -0.358,0.29c0.006,0.18 3.737,1.35 4.632,1.32c0.797,-0.04 1.273,-0.17 1.616,-0.5z" fill="#F2920C"/>
<path id="Vector_314" d="M29.5303,27.65c0,-0.15 -5.527,-1.91 -5.684,-1.91c-0.156,0 -1.008,0.39 -1.025,0.57c-0.017,0.17 3.563,2.18 4.451,2.3c0.904,0.12 2.243,-0.42 2.258,-0.96z" fill="#C27614"/>
<path id="Vector_315" d="M29.5313,27.65c0.121,-0.09 -5.528,-1.91 -5.685,-1.91c-0.156,0 -0.377,0.08 -0.396,0.25c-0.019,0.17 3.519,1.85 4.411,1.93c0.792,0.07 1.286,0.01 1.67,-0.27z" fill="#F2920C"/>
<path id="Vector_316" d="M21.5363,26.13v0h-0.006z" fill="#C27614"/>
<path id="Vector_317" d="M27.3323,28.82c-0.096,0.53 -1.507,0.85 -2.38,0.59c-0.104,-0.03 -0.204,-0.08 -0.3,-0.13l-0.033,-0.02c-0.339,-0.19 -0.668,-0.39 -0.984,-0.62c-0.52,-0.36 -1.092,-0.79 -1.576,-1.17c0.018,-0.06 0.035,-0.11 0.052,-0.16v-0.01c0.016,-0.05 0.032,-0.11 0.047,-0.16c0.03,-0.12 0.06,-0.23 0.087,-0.35c0.016,-0.07 0.031,-0.15 0.046,-0.22c0.02,-0.1 0.04,-0.21 0.06,-0.32v0c0,-0.02 0.007,-0.04 0.01,-0.06c0.212,0.11 0.508,0.25 0.852,0.42c0.542,0.27 1.201,0.61 1.831,0.93c0.663,0.34 1.295,0.68 1.725,0.92c0.172,0.09 0.34,0.19 0.502,0.3l0.025,0.02c0.005,0.01 0.009,0.01 0.013,0.01c0.019,0.02 0.025,0.03 0.023,0.03z" fill="#C27614"/>
<path id="Vector_318" d="M27.3323,28.82c-0.422,0.21 -0.919,0.2 -1.689,0c-0.282,-0.09 -0.553,-0.21 -0.808,-0.36c-0.183,-0.11 -0.381,-0.22 -0.587,-0.34c-0.694,-0.42 -1.466,-0.94 -1.997,-1.33c0.016,-0.07 0.031,-0.15 0.046,-0.22c0.021,-0.1 0.041,-0.21 0.061,-0.32v0c0,-0.02 0.007,-0.04 0.01,-0.06c0.218,0.11 0.526,0.26 0.883,0.44c0.53,0.27 1.169,0.59 1.784,0.91c0.644,0.34 1.26,0.66 1.692,0.9c0.261,0.14 0.454,0.26 0.546,0.32l0.025,0.01c0.004,0.01 0.009,0.01 0.013,0.02c0.021,0.02 0.028,0.03 0.021,0.03z" fill="#F2920C"/>
<path id="Vector_319" d="M25.2313,29.81c-0.189,0.5 -1.635,0.56 -2.447,0.15c-0.112,-0.06 -0.218,-0.13 -0.317,-0.22c-0.428,-0.36 -0.833,-0.74 -1.213,-1.15c0.024,-0.02 0.047,-0.04 0.069,-0.06c0.171,-0.13 0.323,-0.29 0.451,-0.47c0.015,-0.02 0.028,-0.04 0.041,-0.06c0.022,-0.03 0.043,-0.07 0.065,-0.11l0.024,-0.05h0.004c0.059,-0.12 0.109,-0.25 0.151,-0.37c0.018,-0.06 0.035,-0.11 0.052,-0.16v-0.01c0.566,0.43 1.197,0.91 1.745,1.34c0.3,0.24 0.574,0.46 0.794,0.64c0.238,0.19 0.413,0.34 0.505,0.44l0.019,0.02l0.016,0.01l0.011,0.01c0.021,0.03 0.03,0.04 0.03,0.05z" fill="#C27614"/>
<path id="Vector_320" d="M25.2313,29.81c-0.453,0.13 -0.94,0.03 -1.661,-0.3c-0.021,-0.01 -0.042,-0.02 -0.065,-0.04c-0.023,-0.01 -0.068,-0.03 -0.106,-0.06c-0.39,-0.24 -1.017,-0.78 -1.623,-1.35c0.015,-0.02 0.028,-0.04 0.041,-0.06c0.022,-0.03 0.043,-0.07 0.065,-0.11l0.024,-0.04l0.004,-0.01c0.059,-0.12 0.109,-0.25 0.151,-0.37c0.018,-0.05 0.035,-0.11 0.052,-0.16c0.562,0.43 1.19,0.91 1.73,1.34c0.291,0.22 0.556,0.44 0.778,0.61c0.25,0.21 0.439,0.37 0.539,0.46l0.018,0.02l0.017,0.02l0.011,0.01c0.025,0.02 0.031,0.04 0.025,0.04z" fill="#F2920C"/>
<path id="Vector_321" d="M29.2023,23.39c0.001,0.07 -0.013,0.14 -0.042,0.21c-0.094,0.19 -0.229,0.36 -0.396,0.5l-0.008,0.01c-0.039,0.03 -0.079,0.07 -0.124,0.1c-0.265,0.2 -0.56,0.37 -0.873,0.48c-0.307,0.13 -0.642,0.17 -0.97,0.12h-0.054c-0.146,-0.02 -0.311,-0.04 -0.488,-0.07c-1.181,-0.2 -2.347,-0.48 -3.491,-0.84h-0.018c0.037,-0.22 0.093,-0.43 0.167,-0.63c0.029,-0.09 0.084,-0.17 0.159,-0.23c0.265,-0.16 0.826,-0.05 1.49,-0.06h0.108h0.004h0.066h0.006c1.024,0.05 2.356,0.13 3.299,0.2h0.022c0.493,0.04 0.877,0.08 1.049,0.11l0.047,0.01h0.012c0.024,0.01 0.037,0.02 0.038,0.02c0.002,0.03 0.001,0.05 -0.003,0.07z" fill="#C27614"/>
<path id="Vector_322" d="M29.1943,23.32c-0.023,0.03 -0.045,0.05 -0.069,0.08c-0.066,0.07 -0.139,0.13 -0.218,0.18c-0.291,0.21 -0.689,0.33 -1.258,0.43c-0.04,0 -0.081,0.01 -0.123,0.01c-1.056,0.08 -4.522,-0.58 -4.629,-0.75c0.028,-0.09 0.083,-0.17 0.158,-0.23c0.265,-0.16 0.826,-0.06 1.49,-0.06h0.108h0.004c1.032,0.05 2.398,0.13 3.362,0.21h0.023c0.498,0.03 0.885,0.07 1.057,0.1l0.048,0.01h0.012c0.026,0.01 0.039,0.02 0.035,0.02z" fill="#F2920C"/>
<path id="Vector_323" d="M27.8163,25.13c0.003,0.08 -0.02,0.17 -0.065,0.24l-0.008,0.01c-0.001,0.01 -0.003,0.01 -0.004,0.01c-0.135,0.22 -0.428,0.43 -0.781,0.6c-0.346,0.16 -0.72,0.26 -1.103,0.3h-0.018h-0.031c-0.051,0 -0.1,0 -0.149,0h-0.009h-0.025c-0.342,-0.03 -1.031,-0.26 -1.779,-0.55c-0.442,-0.17 -0.902,-0.36 -1.32,-0.55c0.005,-0.04 0.012,-0.08 0.018,-0.12v-0.01c0.027,-0.19 0.054,-0.37 0.079,-0.55c0.035,-0.22 0.069,-0.43 0.104,-0.61c0.894,0.18 2.409,0.52 3.553,0.79c0.179,0.04 0.348,0.09 0.504,0.13c0.453,0.11 0.799,0.2 0.952,0.26l0.045,0.02c0.024,0.01 0.036,0.02 0.037,0.03z" fill="#C27614"/>
<path id="Vector_324" d="M27.8163,25.13c-0.086,0.07 -0.181,0.14 -0.283,0.19c-0.015,0.01 -0.031,0.01 -0.048,0.02c-0.003,0 -0.006,0 -0.01,0c-0.317,0.15 -0.727,0.21 -1.295,0.21c-0.28,-0.02 -0.558,-0.07 -0.829,-0.14c-0.079,-0.03 -0.164,-0.05 -0.251,-0.07c-0.776,-0.21 -1.753,-0.55 -2.476,-0.83c0.034,-0.22 0.068,-0.43 0.104,-0.61h0.019c0.894,0.19 2.391,0.52 3.527,0.79l0.455,0.11c0.476,0.12 0.848,0.22 1.004,0.27l0.044,0.02c0.033,0.02 0.046,0.03 0.039,0.04z" fill="#F2920C"/>
<path id="Vector_325" d="M21.5363,26.13v0h-0.006z" fill="#C27614"/>
<path id="Vector_326" d="M26.6593,26.66c-0.013,0.24 -0.284,0.46 -0.659,0.63c-0.303,0.13 -0.624,0.22 -0.952,0.25h-0.015c-0.057,0.01 -0.113,0.02 -0.169,0.02c-0.08,0 -0.159,0 -0.238,0h-0.018c-0.08,-0.01 -0.159,-0.01 -0.238,-0.03c-0.376,-0.06 -1.227,-0.48 -2.08,-0.96c0.021,-0.1 0.041,-0.21 0.061,-0.32c0,0 0,0 0,-0.01c0,-0.01 0.007,-0.03 0.01,-0.05c0.021,-0.12 0.042,-0.24 0.062,-0.37c0.034,-0.21 0.066,-0.42 0.097,-0.63c0.005,-0.04 0.012,-0.09 0.018,-0.13v0c0.838,0.29 1.877,0.67 2.698,0.98h0.005c0.22,0.09 0.426,0.17 0.608,0.24c0.295,0.12 0.529,0.22 0.667,0.28h0.004l0.015,0.01l0.024,0.01l0.011,0.01l0.029,0.02c0.045,0.03 0.06,0.04 0.06,0.05z" fill="#C27614"/>
<path id="Vector_327" d="M26.6593,26.66c-0.377,0.25 -0.847,0.3 -1.579,0.22l-0.097,-0.01c-0.364,-0.05 -1.16,-0.38 -1.973,-0.76c-0.197,-0.09 -0.397,-0.19 -0.586,-0.28c0.034,-0.21 0.066,-0.43 0.097,-0.64c0.005,-0.04 0.011,-0.08 0.018,-0.12c0.896,0.31 2.022,0.73 2.871,1.05h0.004l0.01,0.01c0.146,0.05 0.282,0.1 0.409,0.16c0.29,0.11 0.522,0.2 0.666,0.27l0.015,0.01h0.008l0.036,0.02h0.02l0.029,0.02c0.045,0.03 0.062,0.04 0.052,0.05z" fill="#F2920C"/>
<path id="Vector_328" d="M21.5363,26.13v0h-0.006z" fill="#C27614"/>
<path id="Vector_329" d="M25.3103,28.03c-0.039,0.17 -0.222,0.32 -0.48,0.42c-0.312,0.12 -0.642,0.18 -0.976,0.19h-0.014c-0.069,0 -0.137,0 -0.206,0c-0.247,0 -0.491,-0.05 -0.725,-0.12c-0.209,-0.09 -0.407,-0.2 -0.592,-0.33l-0.056,-0.03c-0.12,-0.08 -0.248,-0.17 -0.382,-0.27l0.023,-0.05l0.005,-0.01c0.059,-0.12 0.109,-0.24 0.151,-0.37c0.018,-0.05 0.035,-0.1 0.052,-0.16v0c0.016,-0.05 0.032,-0.11 0.047,-0.17c0.03,-0.11 0.06,-0.23 0.087,-0.35c0.015,-0.07 0.031,-0.14 0.046,-0.21c0.02,-0.1 0.04,-0.21 0.06,-0.32c0,0 0,0 0,-0.01c0.82,0.46 1.689,0.96 2.272,1.31c0.265,0.16 0.471,0.3 0.585,0.38c0.017,0.01 0.031,0.02 0.044,0.03l0.026,0.03c0.025,0.02 0.033,0.03 0.033,0.04z" fill="#C27614"/>
<path id="Vector_330" d="M21.5363,26.13v0h-0.006z" fill="#F2920C"/>
<path id="Vector_331" d="M25.3113,28.03c-0.301,0.13 -0.635,0.16 -1.066,0.08c-0.21,-0.04 -0.417,-0.09 -0.62,-0.15c-0.294,-0.09 -0.855,-0.42 -1.464,-0.83c0.03,-0.11 0.06,-0.23 0.087,-0.35c0.015,-0.07 0.031,-0.14 0.046,-0.21c0.02,-0.1 0.04,-0.21 0.06,-0.32c0.812,0.46 1.672,0.95 2.255,1.3c0.273,0.17 0.485,0.3 0.603,0.38l0.044,0.03l0.026,0.03c0.029,0.02 0.038,0.04 0.029,0.04z" fill="#F2920C"/>
<path id="Vector_332" d="M23.5593,29.39c-0.014,0.03 -0.033,0.06 -0.057,0.09c-0.17,0.19 -0.577,0.28 -1.031,0.27c-0.166,-0.01 -0.332,-0.03 -0.495,-0.06h-0.011c-0.302,-0.05 -0.592,-0.15 -0.86,-0.3c-0.174,-0.11 -0.335,-0.24 -0.48,-0.39c0.147,-0.08 0.29,-0.17 0.425,-0.26l0.007,-0.01c0.066,-0.04 0.132,-0.09 0.193,-0.14c0.024,-0.02 0.047,-0.03 0.069,-0.05c0.172,-0.14 0.323,-0.3 0.451,-0.47c0.015,-0.02 0.029,-0.04 0.041,-0.06c0.023,-0.04 0.044,-0.08 0.065,-0.12l0.024,-0.04l0.005,-0.01l0.41,0.36c0.608,0.54 1.092,0.98 1.213,1.14l0.008,0.01c0.019,0.02 0.027,0.03 0.023,0.04z" fill="#C27614"/>
<path id="Vector_333" d="M23.5593,29.39c-0.053,0.01 -0.108,0.02 -0.162,0.02c-0.413,0.05 -0.86,-0.09 -1.479,-0.42c-0.214,-0.13 -0.413,-0.29 -0.596,-0.46c0.172,-0.13 0.323,-0.29 0.451,-0.47c0.015,-0.02 0.029,-0.04 0.041,-0.06c0.023,-0.03 0.044,-0.07 0.065,-0.11l0.024,-0.05c0.123,0.11 0.243,0.22 0.359,0.32c0.635,0.56 1.141,1.02 1.269,1.18l0.008,0.01c0.026,0.02 0.026,0.03 0.02,0.04z" fill="#F2920C"/>
<path id="Vector_334" d="M22.3923,30.21c-0.257,0.47 -1.697,0.34 -2.444,-0.19c-0.185,-0.14 -0.353,-0.31 -0.501,-0.5c0.246,-0.09 0.519,-0.2 0.794,-0.33c0.13,-0.06 0.26,-0.13 0.388,-0.2c0.147,-0.08 0.29,-0.16 0.424,-0.26h0.008c0.353,0.37 0.674,0.7 0.911,0.96c0.141,0.15 0.274,0.31 0.397,0.47v0c0.004,0.01 0.008,0.01 0.011,0.02c0.011,0.02 0.015,0.03 0.012,0.03z" fill="#C27614"/>
<path id="Vector_335" d="M22.3933,30.21c-0.468,0.07 -0.936,-0.1 -1.605,-0.53c-0.199,-0.14 -0.382,-0.31 -0.547,-0.49c0.13,-0.06 0.26,-0.13 0.388,-0.2c0.147,-0.08 0.29,-0.16 0.424,-0.25c0.351,0.36 0.669,0.69 0.908,0.95c0.203,0.22 0.348,0.38 0.407,0.46v0.01c0.004,0 0.008,0.01 0.011,0.02c0.018,0.02 0.022,0.03 0.014,0.03z" fill="#F2920C"/>
<path id="Vector_336" d="M27.7443,20.62c-0.007,0.23 -0.074,0.46 -0.194,0.66c-0.123,0.23 -0.275,0.43 -0.453,0.62h-0.006c-0.018,0.02 -0.038,0.04 -0.058,0.06c-0.192,0.19 -0.402,0.36 -0.626,0.51c-0.103,0.07 -0.211,0.13 -0.323,0.19c-0.426,0.2 -0.889,0.31 -1.359,0.32h-0.006h-0.066h-0.003h-0.108c-0.665,0 -1.225,-0.1 -1.491,0.06c-0.075,0.06 -0.13,0.13 -0.158,0.23c-0.075,0.2 -0.131,0.41 -0.168,0.62c-0.035,0.19 -0.069,0.4 -0.104,0.62c-0.027,0.17 -0.054,0.35 -0.079,0.54v0.01c-0.006,0.04 -0.013,0.08 -0.018,0.13c-0.031,0.2 -0.063,0.42 -0.097,0.63c-0.02,0.12 -0.04,0.25 -0.062,0.37c0,0.02 -0.006,0.03 -0.01,0.05v0.01c-0.02,0.11 -0.04,0.21 -0.06,0.32c-0.016,0.07 -0.031,0.14 -0.046,0.21c-0.027,0.12 -0.057,0.24 -0.087,0.35c-0.015,0.06 -0.031,0.11 -0.048,0.17v0c-0.016,0.06 -0.033,0.11 -0.051,0.16c-0.042,0.13 -0.093,0.25 -0.151,0.37l-0.005,0.01l-0.023,0.05c-0.022,0.04 -0.043,0.08 -0.066,0.11c-0.012,0.02 -0.026,0.04 -0.041,0.06c-0.128,0.17 -0.279,0.33 -0.45,0.47c-0.023,0.02 -0.046,0.04 -0.069,0.05c-0.062,0.05 -0.127,0.1 -0.194,0.14l-0.007,0.01c-0.135,0.09 -0.278,0.18 -0.425,0.26c-0.127,0.07 -0.258,0.14 -0.388,0.2c-0.273,0.13 -0.546,0.24 -0.793,0.33c-0.442,0.16 -0.794,0.26 -0.902,0.29l-0.028,0.01c-0.112,-0.01 -0.202,-0.28 -0.202,-0.61c0,-0.33 0.092,-0.6 0.206,-0.6c0.058,-0.03 0.117,-0.05 0.178,-0.06c0.173,-0.06 0.455,-0.14 0.768,-0.24c0.13,-0.05 0.265,-0.09 0.397,-0.14c0.159,-0.06 0.318,-0.12 0.464,-0.19c0.002,0 0.005,0 0.008,0c0.088,-0.03 0.174,-0.08 0.254,-0.11l0.026,-0.02c0.248,-0.12 0.448,-0.25 0.545,-0.38c0.004,-0.01 0.008,-0.01 0.011,-0.02c0.015,-0.02 0.029,-0.04 0.042,-0.07c0.015,-0.03 0.031,-0.06 0.046,-0.1v-0.01c0.045,-0.12 0.084,-0.24 0.115,-0.37c0.01,-0.04 0.021,-0.08 0.03,-0.13c0.001,0 0.001,0 0,0c0.01,-0.04 0.021,-0.09 0.03,-0.14c0.034,-0.15 0.067,-0.32 0.099,-0.5v0c0.018,-0.1 0.035,-0.2 0.052,-0.3c0,0 0.001,0 0.001,-0.01h-0.001c0.022,-0.13 0.044,-0.26 0.066,-0.4c0.031,-0.19 0.062,-0.39 0.093,-0.59l0.008,-0.05c0.031,-0.2 0.063,-0.4 0.096,-0.59c0.023,-0.15 0.048,-0.29 0.073,-0.43v0c0.117,-0.64 0.238,-1.15 0.387,-1.31c0.45,-0.5 5.29,-2.1 5.399,-1.96c0.023,0.04 0.034,0.08 0.032,0.13z" fill="#C27614"/>
<path id="Vector_337" d="M26.8743,3.07c0,0.05 -0.035,17.04 -0.035,17.15c0,0.11 -0.051,0.16 -0.148,0.16l-6.24,0.02c-0.079,0 -0.147,0.08 -0.175,0.16c-0.029,0.08 -0.507,1.44 -0.979,2.28c-0.472,0.83 -1.111,1.69 -1.208,1.77c-0.013,0.01 -0.027,0.02 -0.042,0.02c-0.027,0.02 -0.059,0.03 -0.09,0.03c-0.032,0 -0.063,-0.01 -0.091,-0.03c-0.014,0 -0.028,-0.01 -0.041,-0.02c-0.098,-0.08 -0.737,-0.94 -1.209,-1.77c-0.471,-0.84 -0.952,-2.2 -0.979,-2.28c-0.027,-0.07 -0.098,-0.16 -0.175,-0.16l-6.24,-0.02c-0.096,0 -0.148,-0.05 -0.148,-0.16c0,-0.11 -0.036,-17.09 -0.035,-17.15c0.001,-0.06 0.025,-0.09 0.079,-0.06c0.054,0.03 2.657,1.44 3.257,5.4c0.601,3.95 -0.129,8.05 -0.145,8.22c-0.016,0.18 0.105,0.19 0.194,0.19c0.089,0 3.115,0 3.305,0c0.191,0 0.26,-0.08 0.265,-0.28c0.004,-0.2 -0.532,-9.98 -0.238,-12.48c0.293,-2.5 2.097,-4.06 2.201,-4.06c0.104,0 1.915,1.56 2.205,4.06c0.291,2.5 -0.245,12.29 -0.238,12.48c0.008,0.2 0.073,0.28 0.265,0.28c0.191,0 3.217,0 3.306,0c0.089,0 0.208,-0.01 0.193,-0.19c-0.015,-0.17 -0.748,-4.26 -0.148,-8.21c0.6,-3.96 3.206,-5.37 3.257,-5.4c0.051,-0.03 0.077,0 0.077,0.05z" fill="#C27614"/>
<path id="Vector_338" d="M17.8163,0.51c0.004,0.01 0.008,0.03 0.009,0.04c0,5.9 0,11.8 0,17.7c0,0 -0.007,0.01 -0.015,0.03c-0.542,-0.46 -1.075,-0.92 -1.613,-1.39c0.018,-0.03 0.034,-0.07 0.047,-0.11c0.033,-0.1 0.045,-0.2 0.035,-0.31c-0.006,-0.04 0,-0.08 0,-0.12c-0.006,-0.14 -0.01,-0.29 -0.017,-0.43c-0.009,-0.2 -0.019,-0.4 -0.028,-0.6c-0.01,-0.2 -0.019,-0.4 -0.028,-0.6c-0.01,-0.21 -0.018,-0.42 -0.028,-0.62c-0.009,-0.21 -0.018,-0.44 -0.028,-0.66c-0.009,-0.21 -0.019,-0.44 -0.027,-0.66c-0.01,-0.24 -0.019,-0.48 -0.028,-0.72l-0.014,-0.35c-0.008,-0.21 -0.018,-0.42 -0.026,-0.63c-0.006,-0.19 -0.01,-0.38 -0.016,-0.57l-0.014,-0.48c-0.005,-0.15 -0.009,-0.31 -0.014,-0.46l-0.014,-0.56c-0.005,-0.2 -0.009,-0.41 -0.013,-0.61c-0.006,-0.29 -0.012,-0.58 -0.014,-0.87c-0.005,-0.61 -0.008,-1.21 -0.01,-1.82c0,-0.19 0.006,-0.39 0.013,-0.58c0.008,-0.2 0.016,-0.39 0.029,-0.58c0.023,-0.49 0.105,-0.98 0.245,-1.45c0.122,-0.4 0.281,-0.78 0.476,-1.14c0.153,-0.28 0.327,-0.55 0.519,-0.81c0.155,-0.21 0.325,-0.41 0.51,-0.59c0.013,-0.02 0.027,-0.03 0.042,-0.04c0.007,-0.01 0.014,-0.01 0.022,-0.01z" fill="#F2920C"/>
<path id="Vector_339" d="M19.7253,16.89c-0.12,0.13 -1.565,1.36 -1.621,1.38c-0.003,-0.01 -0.006,-0.02 -0.007,-0.04v-17.72c0.039,-0.01 0.051,0.02 0.069,0.03c0.171,0.17 0.33,0.36 0.476,0.55c0.265,0.34 0.494,0.71 0.683,1.11c0.243,0.49 0.415,1.01 0.51,1.55c0.032,0.18 0.052,0.37 0.071,0.55c0.014,0.14 0.019,0.28 0.029,0.43c0.021,0.29 0.027,0.59 0.028,0.89c0,0.56 0.009,1.12 0.009,1.67c0,0.32 -0.008,0.65 -0.013,0.97c0,0.21 -0.009,0.41 -0.014,0.62c-0.004,0.19 -0.009,0.37 -0.014,0.56c-0.004,0.16 -0.009,0.32 -0.014,0.48c-0.005,0.16 -0.009,0.32 -0.014,0.48c-0.004,0.13 -0.009,0.26 -0.014,0.4c-0.009,0.27 -0.018,0.54 -0.027,0.81l-0.015,0.36c-0.008,0.24 -0.017,0.48 -0.028,0.71c-0.009,0.23 -0.018,0.45 -0.027,0.68c-0.01,0.21 -0.019,0.43 -0.028,0.64l-0.029,0.63c-0.008,0.2 -0.018,0.4 -0.027,0.6l-0.028,0.6c-0.01,0.2 -0.014,0.4 -0.03,0.61c-0.008,0.09 -0.003,0.19 0.018,0.29c0.013,0.04 0.036,0.1 0.057,0.16z" fill="#C27614"/>
<path id="Vector_340" d="M26.5893,3.62c0,0.03 0.004,0.05 0.004,0.08c0,1.39 -0.001,2.78 -0.004,4.17c0,0.89 -0.007,1.77 -0.009,2.66c0,1.36 -0.001,2.71 -0.004,4.07c0,1.13 -0.003,2.27 -0.01,3.4c0,0.6 -0.002,1.2 -0.004,1.8c0,0.03 0,0.06 -0.007,0.1c-0.021,-0.01 -0.041,-0.02 -0.06,-0.04l-0.52,-0.49c-0.178,-0.17 -0.357,-0.33 -0.534,-0.5c-0.146,-0.14 -0.289,-0.28 -0.434,-0.41c-0.013,-0.01 -0.023,-0.03 -0.03,-0.04c-0.006,-0.01 -0.009,-0.03 -0.008,-0.05c0.001,0 0.001,-0.01 0,-0.02c0,-1.25 0,-2.5 0,-3.76c0,-0.25 0,-0.5 0,-0.76c0,-0.35 0.009,-0.71 0.014,-1.06c0.004,-0.25 0.009,-0.49 0.014,-0.73c0.004,-0.2 0.008,-0.4 0.013,-0.6l0.015,-0.5c0.003,-0.14 0.008,-0.28 0.014,-0.43c0.004,-0.12 0.009,-0.24 0.014,-0.36c0.009,-0.22 0.018,-0.43 0.028,-0.64c0.008,-0.18 0.017,-0.35 0.028,-0.53c0.013,-0.2 0.024,-0.41 0.042,-0.62c0.025,-0.29 0.048,-0.58 0.084,-0.87c0.097,-0.8 0.29,-1.59 0.574,-2.35c0.186,-0.5 0.42,-0.97 0.7,-1.42c0.017,-0.04 0.045,-0.07 0.08,-0.1z" fill="#C27614"/>
<path id="Vector_341" d="M9.3763,19.9c-0.006,-0.02 -0.011,-0.03 -0.014,-0.05c0,-0.02 0,-0.04 0,-0.06c0,-1.41 0,-2.82 0,-4.23c0,-1.3 -0.004,-2.6 -0.011,-3.89c0,-0.96 0,-1.92 0,-2.88c-0.003,-1.3 -0.006,-2.6 -0.01,-3.9c0,-0.39 -0.001,-0.79 -0.004,-1.18c0,-0.03 0,-0.06 0,-0.08l0.015,-0.01c0.014,0.02 0.028,0.04 0.04,0.05c0.244,0.39 0.454,0.79 0.627,1.21c0.183,0.45 0.332,0.91 0.445,1.37c0.089,0.36 0.158,0.72 0.205,1.08c0.031,0.26 0.058,0.53 0.083,0.79c0.018,0.19 0.029,0.39 0.043,0.58c0.01,0.16 0.019,0.31 0.027,0.47c0.01,0.19 0.019,0.39 0.028,0.58c0.005,0.11 0.01,0.22 0.014,0.33c0.008,0.21 0.019,0.42 0.026,0.63c0.007,0.22 0.011,0.42 0.016,0.62l0.014,0.67c0,0.2 0.01,0.39 0.014,0.59c0.005,0.41 0.011,0.82 0.013,1.23c0.005,1.23 0.01,2.47 0.014,3.71c0,0.27 0,0.54 0,0.81c0.002,0.03 -0.002,0.05 -0.011,0.07c-0.01,0.02 -0.024,0.04 -0.042,0.06c-0.182,0.17 -0.362,0.34 -0.543,0.51l-0.397,0.38l-0.527,0.49c-0.021,0.02 -0.043,0.03 -0.065,0.05z" fill="#F2920C"/>
<path id="Vector_342" d="M11.2293,18c0,-0.03 0,-0.06 0,-0.09c0,-0.74 0,-1.47 0,-2.21c0,-0.58 -0.002,-1.17 -0.004,-1.75c0,-0.37 -0.009,-0.74 -0.014,-1.11c-0.004,-0.25 -0.009,-0.49 -0.014,-0.74c-0.004,-0.21 -0.008,-0.41 -0.014,-0.62l-0.014,-0.5c-0.004,-0.14 -0.009,-0.29 -0.014,-0.44c0,-0.12 -0.009,-0.25 -0.014,-0.37c-0.008,-0.22 -0.018,-0.44 -0.027,-0.65c-0.009,-0.18 -0.018,-0.35 -0.029,-0.53c-0.013,-0.21 -0.025,-0.43 -0.042,-0.64c-0.017,-0.21 -0.032,-0.43 -0.056,-0.64c-0.028,-0.24 -0.061,-0.48 -0.1,-0.72c-0.066,-0.41 -0.157,-0.81 -0.273,-1.21c-0.126,-0.44 -0.285,-0.87 -0.476,-1.28c-0.061,-0.16 -0.141,-0.3 -0.212,-0.45c-0.009,-0.02 -0.013,-0.03 -0.011,-0.05c0.014,0.01 0.028,0.02 0.04,0.03c0.262,0.25 0.503,0.53 0.718,0.83c0.22,0.3 0.416,0.62 0.588,0.95c0.241,0.47 0.435,0.96 0.58,1.46c0.111,0.38 0.196,0.77 0.256,1.16c0.035,0.22 0.062,0.45 0.089,0.68c0.027,0.24 0.049,0.44 0.067,0.66c0.018,0.22 0.031,0.42 0.044,0.63c0.008,0.13 0.011,0.27 0.015,0.41c0.005,0.18 0.011,0.36 0.014,0.54c0.005,0.27 0.009,0.53 0.009,0.8c0,0.2 -0.006,0.4 -0.013,0.59c-0.007,0.2 -0.017,0.42 -0.028,0.63c-0.011,0.2 -0.025,0.43 -0.042,0.64c-0.02,0.27 -0.043,0.53 -0.07,0.8c-0.033,0.32 -0.07,0.64 -0.111,0.96c-0.035,0.28 -0.079,0.56 -0.118,0.84c-0.012,0.08 0.002,0.17 0.04,0.25c0.008,0.01 0.012,0.03 0.01,0.05c-0.002,0.02 -0.009,0.04 -0.021,0.05c-0.233,0.33 -0.464,0.67 -0.695,1c-0.013,0.02 -0.026,0.03 -0.04,0.04z" fill="#C27614"/>
<path id="Vector_343" d="M26.0153,4.01c-0.007,0.02 -0.014,0.04 -0.022,0.05c-0.23,0.44 -0.422,0.9 -0.576,1.37c-0.163,0.49 -0.287,0.99 -0.37,1.49c-0.045,0.29 -0.08,0.57 -0.114,0.85c-0.019,0.16 -0.031,0.32 -0.042,0.48c-0.016,0.21 -0.029,0.42 -0.043,0.63c-0.01,0.17 -0.019,0.34 -0.027,0.51c-0.01,0.21 -0.019,0.43 -0.028,0.65c-0.005,0.11 -0.01,0.23 -0.014,0.34c-0.005,0.15 -0.009,0.3 -0.014,0.45c-0.005,0.15 -0.009,0.31 -0.013,0.46c-0.006,0.2 -0.01,0.41 -0.015,0.62c-0.004,0.18 -0.011,0.36 -0.013,0.54c-0.006,0.41 -0.01,0.82 -0.014,1.23c0,0.25 -0.01,0.5 -0.011,0.75c0,1.08 0,2.15 0,3.23c0,0.09 0,0.18 0,0.27v0.07c-0.039,0 -0.047,-0.03 -0.06,-0.05c-0.079,-0.11 -0.154,-0.22 -0.231,-0.33c-0.155,-0.22 -0.309,-0.45 -0.465,-0.67c-0.01,-0.01 -0.017,-0.02 -0.019,-0.04c-0.003,-0.01 -0.002,-0.02 0.004,-0.04c0.049,-0.12 0.06,-0.25 0.031,-0.37c-0.038,-0.26 -0.073,-0.51 -0.106,-0.77c-0.028,-0.21 -0.053,-0.42 -0.08,-0.63c-0.013,-0.12 -0.023,-0.24 -0.034,-0.35c-0.016,-0.18 -0.034,-0.35 -0.05,-0.53c-0.008,-0.1 -0.012,-0.19 -0.02,-0.29c-0.012,-0.18 -0.024,-0.36 -0.036,-0.54c0,-0.03 0,-0.07 -0.005,-0.11c-0.005,-0.15 -0.01,-0.29 -0.014,-0.43c-0.006,-0.18 -0.011,-0.36 -0.014,-0.54c-0.004,-0.27 -0.01,-0.54 -0.01,-0.81c0,-0.21 0.006,-0.42 0.014,-0.62c0.007,-0.19 0.015,-0.38 0.028,-0.57c0.018,-0.27 0.041,-0.53 0.064,-0.8c0.018,-0.19 0.035,-0.38 0.061,-0.56c0.033,-0.26 0.069,-0.52 0.113,-0.78c0.06,-0.34 0.141,-0.68 0.244,-1.01c0.117,-0.38 0.261,-0.75 0.431,-1.11c0.224,-0.48 0.5,-0.93 0.822,-1.35c0.18,-0.24 0.377,-0.46 0.59,-0.67c0.014,-0.01 0.03,-0.02 0.045,-0.03z" fill="#F2920C"/>
<path id="Vector_344" d="M15.7963,20.26c-0.056,-0.06 -0.127,-0.1 -0.205,-0.13c-0.024,-0.01 -0.049,-0.01 -0.075,-0.01c-0.227,-0.01 -0.454,-0.01 -0.68,-0.01c-0.978,0 -1.956,0 -2.936,-0.01c-0.743,-0.01 -1.485,0 -2.227,-0.01c-0.02,0 -0.039,0 -0.08,-0.01c0.053,-0.05 0.093,-0.09 0.134,-0.13l0.436,-0.41l0.533,-0.5c0.093,-0.09 0.187,-0.17 0.277,-0.26c0.016,-0.02 0.034,-0.03 0.056,-0.04c0.021,-0.01 0.043,-0.01 0.066,-0.01c0.339,0 0.679,0 1.017,0h5.35h0.103c-0.006,0.01 -0.013,0.02 -0.021,0.04c-0.065,0.08 -1.698,1.47 -1.748,1.49z" fill="#C27614"/>
<path id="Vector_345" d="M18.3663,18.73h0.08c2.121,0 4.243,0 6.366,0c0.028,0 0.056,0 0.083,0.01c0.026,0.01 0.05,0.03 0.07,0.05c0.182,0.18 0.368,0.35 0.555,0.52l0.53,0.5l0.223,0.21c0.019,0.02 0.037,0.05 0.053,0.07c-0.046,0 -0.075,0 -0.104,0c-0.671,0 -1.342,-0.01 -2.013,0c-1.129,0.02 -2.26,0.01 -3.39,0.02c-0.139,0 -0.278,0 -0.417,0.01c-0.083,0.01 -0.161,0.05 -0.222,0.1c-0.054,0.05 -0.054,0.05 -0.108,0l-1.507,-1.29l-0.159,-0.14c-0.014,-0.01 -0.028,-0.03 -0.04,-0.04z" fill="#C27614"/>
<path id="Vector_346" d="M11.2873,18.46c0.01,-0.03 0.021,-0.05 0.034,-0.07c0.291,-0.42 0.582,-0.84 0.873,-1.26c0.008,-0.01 0.023,-0.03 0.04,-0.03c0.018,-0.01 0.038,-0.01 0.056,-0.01c0.063,0.02 0.128,0.02 0.193,0.02c1.061,0 2.122,0 3.182,0c0.086,0 0.171,-0.01 0.254,-0.03c0.016,-0.01 0.033,-0.01 0.05,0c0.016,0 0.031,0.01 0.044,0.02c0.203,0.18 0.407,0.35 0.611,0.53c0.294,0.25 0.587,0.5 0.88,0.76c0.019,0.01 0.035,0.03 0.061,0.06c-0.018,0 -0.037,0.01 -0.056,0.01c-0.018,0 -0.036,0 -0.055,0h-6.059c-0.032,0 -0.064,0 -0.108,0z" fill="#F2920C"/>
<path id="Vector_347" d="M24.6573,18.45c-0.09,0.02 -6.213,0.01 -6.274,0c0.02,-0.02 0.035,-0.04 0.053,-0.06c0.293,-0.25 0.586,-0.5 0.88,-0.76c0.204,-0.17 0.409,-0.35 0.612,-0.52c0.013,-0.02 0.029,-0.02 0.046,-0.03c0.018,0 0.036,0 0.053,0c0.081,0.02 0.164,0.03 0.247,0.03c1.065,0 2.131,0 3.197,0c0.065,0 0.129,0 0.193,-0.02c0.045,-0.01 0.063,0.01 0.084,0.04l0.234,0.34l0.614,0.88c0.021,0.03 0.038,0.06 0.061,0.1z" fill="#F2920C"/>
<path id="Vector_348" d="M17.8013,24.1c-0.016,-0.02 -0.033,-0.04 -0.048,-0.06c-0.316,-0.43 -0.608,-0.87 -0.873,-1.34c-0.218,-0.39 -0.41,-0.8 -0.574,-1.22c-0.118,-0.29 -0.229,-0.59 -0.344,-0.89c-0.008,-0.02 -0.014,-0.04 -0.023,-0.07l1.869,-1.61c0.008,0.02 0.014,0.03 0.017,0.05c0.002,0.02 0.002,0.04 0,0.06v4.98c0,0.03 0,0.06 -0.005,0.1z" fill="#F2920C"/>
<path id="Vector_349" d="M18.1013,24.11v-5.2c0.035,0.02 0.061,0.04 0.084,0.06l0.432,0.37l1.087,0.94l0.283,0.24c-0.023,0.07 -0.045,0.14 -0.071,0.2c-0.173,0.46 -0.353,0.92 -0.555,1.36c-0.204,0.45 -0.443,0.87 -0.714,1.28c-0.152,0.23 -0.31,0.45 -0.466,0.67c-0.019,0.03 -0.042,0.06 -0.064,0.08z" fill="#C27614"/>
</g></svg>